HIERARCHY
ROOT Hips
{
	OFFSET 0.000000 0.000000 0.000000
	CHANNELS 6 Xposition Yposition Zposition Yrotation Xrotation Zrotation 
	JOINT LeftHip
	{
		OFFSET 0.094196 0.000343 -0.000038
		CHANNELS 3 Yrotation Xrotation Zrotation
		JOINT LeftKnee
		{
			OFFSET 0.000000 -0.468901 0.000041
			CHANNELS 3 Yrotation Xrotation Zrotation
			JOINT LeftAnkle
			{
				OFFSET 0.000000 -0.397674 0.000438
				CHANNELS 3 Yrotation Xrotation Zrotation
				JOINT LeftToe
				{
					OFFSET 0.000000 -0.090712 0.195501
					CHANNELS 3 Yrotation Xrotation Zrotation
					End Site
					{
						OFFSET 0.000000 0.000000 0.000000
					}
				}
			}
		}
	}
	JOINT RightHip
	{
		OFFSET -0.094196 0.000364 -0.000040
		CHANNELS 3 Yrotation Xrotation Zrotation
		JOINT RightKnee
		{
			OFFSET 0.000000 -0.468901 0.000041
			CHANNELS 3 Yrotation Xrotation Zrotation
			JOINT RightAnkle
			{
				OFFSET 0.000000 -0.397674 0.000438
				CHANNELS 3 Yrotation Xrotation Zrotation
				JOINT RightToe
				{
					OFFSET 0.000000 -0.090712 0.195501
					CHANNELS 3 Yrotation Xrotation Zrotation
					End Site
					{
						OFFSET 0.000000 0.000000 0.000000
					}
				}
			}
		}
	}
	JOINT Chest
	{
		OFFSET 0.000000 0.113860 -0.012651
		CHANNELS 3 Yrotation Xrotation Zrotation
		JOINT Chest3
		{
			OFFSET -0.002400 0.210882 -0.005802
			CHANNELS 3 Yrotation Xrotation Zrotation
			JOINT Chest4
			{
				OFFSET 0.000000 0.100637 -0.000145
				CHANNELS 3 Yrotation Xrotation Zrotation
				JOINT Neck
				{
					OFFSET 0.000000 0.138831 0.000000
					CHANNELS 3 Yrotation Xrotation Zrotation
					JOINT Head
					{
						OFFSET 0.000000 0.095420 0.000176
						CHANNELS 3 Yrotation Xrotation Zrotation
						End Site
						{
							OFFSET 0.000000 0.000000 0.000000
						}
					}
				}
				JOINT LeftCollar
				{
					OFFSET 0.029338 0.077908 0.000000
					CHANNELS 3 Yrotation Xrotation Zrotation
					JOINT LeftShoulder
					{
						OFFSET 0.140442 0.000000 0.000000
						CHANNELS 3 Yrotation Xrotation Zrotation
						JOINT LeftElbow
						{
							OFFSET 0.303173 0.000000 0.000000
							CHANNELS 3 Yrotation Xrotation Zrotation
							JOINT LeftWrist
							{
								OFFSET 0.261212 0.000000 0.000049
								CHANNELS 3 Yrotation Xrotation Zrotation
								End Site
								{
									OFFSET 0.000000 0.000000 0.000000
								}
							}
						}
					}
				}
				JOINT RightCollar
				{
					OFFSET -0.029338 0.077908 0.000000
					CHANNELS 3 Yrotation Xrotation Zrotation
					JOINT RightShoulder
					{
						OFFSET -0.140442 0.000000 0.000000
						CHANNELS 3 Yrotation Xrotation Zrotation
						JOINT RightElbow
						{
							OFFSET -0.303173 0.000000 0.000000
							CHANNELS 3 Yrotation Xrotation Zrotation
							JOINT RightWrist
							{
								OFFSET -0.261212 0.000000 0.000049
								CHANNELS 3 Yrotation Xrotation Zrotation
								End Site
								{
									OFFSET 0.000000 0.000000 0.000000
								}
							}
						}
					}
				}
			}
		}
	}
}
MOTION
Frames: 12
Frame Time: 0.016667
0.000000 0.000000 0.000000 175.490649 359.006038 358.417903 7.125067 357.940613 4.783182 0.662324 9.398706 0.385542 8.806433 353.835625 356.099228 359.737343 359.246915 359.172027 351.454085 357.578524 355.874016 0.573295 10.785431 0.436387 350.568827 355.212443 4.380129 359.996284 359.367784 359.889842 1.154293 5.442352 0.681979 359.775739 359.090078 2.197337 359.903670 8.143091 1.457624 359.083185 22.970348 0.623191 358.384159 5.654873 0.505818 357.977340 4.328576 348.640371 356.250370 338.515947 281.954210 354.414496 19.651617 14.450704 3.738047 8.880965 9.138820 4.433108 5.504538 8.914876 359.975746 335.719178 73.070683 352.615626 16.248048 344.291203 351.752647 8.500408 346.471490 
0.000000 0.000000 0.000000 175.586256 359.000055 358.422258 7.125103 358.011111 4.787122 0.642203 9.403642 0.393376 8.743501 353.797006 356.081928 359.741742 359.236290 359.176201 351.401635 357.659918 355.840094 0.574921 10.789159 0.450155 350.515131 355.126804 4.388047 0.001246 359.375230 359.890894 1.300692 5.567468 0.721626 359.616872 359.151989 2.161882 0.044387 8.136439 1.412846 358.836743 22.573933 0.814070 358.085935 4.975088 0.755877 358.157238 4.046550 348.683454 357.492184 339.108954 281.960088 354.651415 15.841683 13.451080 3.203810 8.021342 12.108555 4.248903 5.245204 8.913706 359.205606 335.929168 72.876998 352.352794 13.263367 345.190604 351.489510 9.127475 346.433898 
0.000000 0.000000 0.000000 175.706730 359.003558 358.431822 7.119888 358.072335 4.792999 0.618753 9.411588 0.403290 8.671159 353.749493 356.065337 359.747271 359.233298 359.179570 351.340940 357.738357 355.803977 0.572585 10.800736 0.466999 350.461198 355.038501 4.399593 0.004534 359.379441 359.890399 1.431380 5.650133 0.809720 359.346618 359.208564 2.143574 0.135810 8.145398 1.375131 358.625602 22.185781 0.975481 357.738731 4.377952 1.006482 358.259105 3.793734 348.705148 358.554236 339.643813 281.935472 355.282786 12.785184 12.691185 2.546036 7.258884 14.433599 4.106319 5.012106 8.837707 358.477539 336.190998 72.877851 352.362640 10.891028 345.862795 351.360410 9.780034 346.361548 
0.000000 0.000000 0.000000 175.844453 359.015800 358.446921 7.109083 358.123061 4.801338 0.592863 9.420753 0.414251 8.594541 353.694711 356.049273 359.753488 359.237396 359.182317 351.273641 357.812933 355.766946 0.567136 10.819997 0.486441 350.411776 354.946486 4.414830 0.005288 359.380613 359.888071 1.541234 5.689063 0.931449 358.976162 359.257033 2.142332 0.189693 8.160284 1.331872 358.452470 21.816916 1.105820 357.396685 3.853703 1.226735 358.308699 3.590274 348.738190 359.559363 340.122055 281.859024 356.086142 10.411366 12.094740 1.933327 6.531811 15.848039 3.983785 4.823141 8.696719 357.747857 336.638345 73.049331 352.627731 9.234133 346.283570 351.471243 10.245377 346.271475 
0.000000 0.000000 0.000000 175.988799 359.034329 358.467561 7.093171 358.162572 4.812447 0.566111 9.429988 0.425266 8.518403 353.636216 356.033371 359.759759 359.246124 359.184689 351.202204 357.882415 355.730149 0.560468 10.845912 0.507946 350.370921 354.850458 4.433458 0.003163 359.379197 359.883978 1.624641 5.689715 1.067264 358.538012 359.283229 2.160521 0.220719 8.176269 1.275479 358.309239 21.473849 1.204639 357.088168 3.399899 1.397733 358.320697 3.441384 348.797118 0.562669 340.587092 281.769983 356.850979 8.698505 11.630102 1.381171 5.975359 16.453282 3.872511 4.677213 8.524273 357.034566 337.287778 73.395778 353.004747 8.118217 346.437675 351.813351 10.377519 346.151357 
0.000000 0.000000 0.000000 176.130690 359.056102 358.492453 7.073038 358.190475 4.826419 0.540052 9.438908 0.435482 8.445360 353.578280 356.017027 359.765627 359.256218 359.186984 351.129368 357.945056 355.694387 0.554477 10.877274 0.531229 350.339904 354.750977 4.455246 359.998615 359.375651 359.878294 1.677750 5.660036 1.196508 358.077162 359.302621 2.185374 0.243344 8.188728 1.209234 358.191944 21.153063 1.273544 356.837854 2.989411 1.522080 358.317584 3.336407 348.895750 1.592602 341.071751 281.697415 357.441098 7.720548 11.323911 0.949522 5.702510 16.464307 3.762242 4.559918 8.365461 356.408927 338.064058 73.864810 353.329887 7.305020 346.371962 352.346223 10.216050 346.004017 
0.000000 0.000000 0.000000 176.263359 359.078963 358.519068 7.049873 358.206421 4.843075 0.516063 9.447834 0.444140 8.376829 353.524412 355.999662 359.770830 359.265068 359.189423 351.057544 357.998778 355.660348 0.550656 10.912975 0.556025 350.317885 354.649511 4.480030 359.992494 359.370258 359.871218 1.699012 5.611425 1.303242 357.635921 359.327698 2.201015 0.275266 8.190507 1.136540 358.092235 20.853398 1.318965 356.651185 2.606145 1.622989 358.313058 3.265136 349.044254 2.618618 341.603728 281.653195 357.867441 7.455510 11.203820 0.579663 5.696031 16.152075 3.646875 4.457689 8.256517 355.926987 338.893457 74.386818 353.560133 6.659982 346.137259 352.954662 9.912676 345.749724 
0.000000 0.000000 0.000000 176.383822 359.103133 358.545390 7.024949 358.209670 4.862001 0.495177 9.457969 0.450652 8.313060 353.476244 355.980782 359.775319 359.271642 359.192129 350.988489 358.041512 355.628675 0.549677 10.952306 0.582189 350.301974 354.547856 4.507563 359.986106 359.363177 359.862968 1.688293 5.554984 1.372740 357.249647 359.369846 2.197693 0.324849 8.175968 1.058641 358.004380 20.577916 1.348915 356.527199 2.234534 1.737303 358.308748 3.211478 349.243526 3.574690 342.185041 281.571263 358.240529 7.802578 11.368720 0.253941 5.910748 15.748759 3.520777 4.353716 8.215713 355.628411 339.696918 74.882750 353.717738 6.168775 345.784422 353.580760 9.639665 345.295307 
0.000000 0.000000 0.000000 176.490674 359.129192 358.568603 6.999617 358.199340 4.882692 0.478008 9.471065 0.454683 8.253723 353.433857 355.960098 359.779185 359.276071 359.195104 350.923200 358.071689 355.600096 0.551541 10.994670 0.609528 350.288785 354.448089 4.537239 359.980546 359.354337 359.853932 1.647568 5.497031 1.394483 356.932672 359.446906 2.166630 0.389490 8.143244 0.976525 357.923162 20.326409 1.376492 356.457902 1.846917 1.883502 358.304571 3.162465 349.489352 4.411539 342.818631 281.456384 358.584984 8.751635 11.734872 0.010057 6.209530 15.474768 3.387308 4.239660 8.257269 355.532449 340.409956 75.284050 353.875934 5.876746 345.359617 354.195369 9.468377 344.572072 
0.000000 0.000000 0.000000 176.580559 359.156249 358.585579 6.975577 358.175507 4.904520 0.465198 9.488596 0.456219 8.200102 353.396667 355.937792 359.782430 359.278887 359.198256 350.862619 358.088938 355.575570 0.556261 11.038999 0.637640 350.277877 354.352808 4.567959 359.975753 359.343353 359.844565 1.585504 5.439655 1.361570 356.684191 359.550702 2.104105 0.469885 8.101969 0.897637 357.842733 20.100811 1.414208 356.419871 1.457844 2.074189 358.306948 3.098077 349.757682 5.143635 343.504662 281.267463 358.887895 10.119145 12.223047 359.770009 6.436355 15.403930 3.242860 4.113606 8.380069 355.571419 341.018111 75.591335 354.149548 5.812471 344.925882 354.768407 9.380761 343.704251 
0.000000 0.000000 0.000000 176.646460 359.182355 358.594173 6.955098 358.139336 4.926930 0.457644 9.511525 0.455405 8.155474 353.363894 355.914768 359.784831 359.280518 359.201424 350.807695 358.094322 355.556626 0.564676 11.083271 0.665693 350.272103 354.264966 4.598169 359.970653 359.329721 359.835431 1.506995 5.388839 1.276922 356.487280 359.657278 2.020660 0.582527 8.057620 0.830139 357.740529 19.900832 1.467434 356.401445 1.089590 2.305442 358.312084 3.038447 350.017549 5.780124 344.239562 281.051896 359.077118 11.640872 12.717740 359.516560 6.460020 15.522516 3.064741 4.017125 8.571444 355.672044 341.542537 75.859855 354.600541 5.890065 344.578827 355.256946 9.342483 342.900118 
0.000000 0.000000 0.000000 176.681350 359.205530 358.593759 6.940550 358.092744 4.949661 0.456246 9.540549 0.452598 8.122559 353.335012 355.892421 359.786142 359.280885 359.204434 350.759355 358.089992 355.545267 0.577891 11.124836 0.692471 350.274613 354.187624 4.626186 359.964370 359.313115 359.827228 1.417179 5.349033 1.148361 356.387427 359.761944 1.925464 0.724563 8.012065 0.782074 357.606127 19.723739 1.538370 356.345571 0.749070 2.593269 358.327232 2.984396 350.243442 6.263034 345.009425 280.838169 359.060223 13.132190 13.121990 359.310346 6.332521 15.861851 2.863088 3.961952 8.800275 355.948276 341.881737 76.093123 355.080924 5.921756 344.356046 355.626061 9.249116 342.277584 
